<svg id="empreendimento" xmlns="http://www.w3.org/2000/svg" width="196.086" height="196.086" viewBox="0 0 196.086 196.086">
  <g id="Group_43" data-name="Group 43" transform="translate(67.678 65.563)">
    <g id="Group_42" data-name="Group 42" transform="translate(0 0)">
      <rect id="Rectangle_14" data-name="Rectangle 14" width="5" height="7" transform="translate(-0.189 0.437)" fill="#fff"/>
    </g>
  </g>
  <g id="Group_45" data-name="Group 45" transform="translate(67.678 78.338)">
    <g id="Group_44" data-name="Group 44" transform="translate(0 0)">
      <rect id="Rectangle_15" data-name="Rectangle 15" width="5" height="8" transform="translate(-0.189 -0.338)" fill="#fff"/>
    </g>
  </g>
  <g id="Group_47" data-name="Group 47" transform="translate(67.678 91.113)">
    <g id="Group_46" data-name="Group 46" transform="translate(0 0)">
      <rect id="Rectangle_16" data-name="Rectangle 16" width="5" height="5" transform="translate(-0.189 -0.113)" fill="#fff"/>
    </g>
  </g>
  <g id="Group_49" data-name="Group 49" transform="translate(67.678 106.443)">
    <g id="Group_48" data-name="Group 48" transform="translate(0 0)">
      <rect id="Rectangle_17" data-name="Rectangle 17" width="5" height="3" transform="translate(-0.189 -0.443)" fill="#fff"/>
    </g>
  </g>
  <g id="Group_51" data-name="Group 51" transform="translate(80.452 65.563)">
    <g id="Group_50" data-name="Group 50" transform="translate(0 0)">
      <rect id="Rectangle_18" data-name="Rectangle 18" width="5" height="7" transform="translate(0.036 0.437)" fill="#fff"/>
    </g>
  </g>
  <g id="Group_53" data-name="Group 53" transform="translate(80.452 78.338)">
    <g id="Group_52" data-name="Group 52" transform="translate(0 0)">
      <rect id="Rectangle_19" data-name="Rectangle 19" width="5" height="8" transform="translate(0.036 -0.338)" fill="#fff"/>
    </g>
  </g>
  <g id="Group_55" data-name="Group 55" transform="translate(80.452 91.113)">
    <g id="Group_54" data-name="Group 54" transform="translate(0 0)">
      <rect id="Rectangle_20" data-name="Rectangle 20" width="5" height="5" transform="translate(0.036 -0.113)" fill="#fff"/>
    </g>
  </g>
  <g id="Group_57" data-name="Group 57" transform="translate(80.452 106.443)">
    <g id="Group_56" data-name="Group 56" transform="translate(0 0)">
      <rect id="Rectangle_21" data-name="Rectangle 21" width="5" height="3" transform="translate(0.036 -0.443)" fill="#fff"/>
    </g>
  </g>
  <g id="Group_59" data-name="Group 59" transform="translate(95.782 65.563)">
    <g id="Group_58" data-name="Group 58" transform="translate(0 0)">
      <rect id="Rectangle_22" data-name="Rectangle 22" width="5" height="7" transform="translate(-0.293 0.437)" fill="#fff"/>
    </g>
  </g>
  <g id="Group_61" data-name="Group 61" transform="translate(95.782 78.338)">
    <g id="Group_60" data-name="Group 60" transform="translate(0 0)">
      <rect id="Rectangle_23" data-name="Rectangle 23" width="5" height="8" transform="translate(-0.293 -0.338)" fill="#fff"/>
    </g>
  </g>
  <g id="Group_63" data-name="Group 63" transform="translate(95.782 91.113)">
    <g id="Group_62" data-name="Group 62" transform="translate(0 0)">
      <rect id="Rectangle_24" data-name="Rectangle 24" width="5" height="5" transform="translate(-0.293 -0.113)" fill="#fff"/>
    </g>
  </g>
  <g id="Group_65" data-name="Group 65" transform="translate(95.782 106.443)">
    <g id="Group_64" data-name="Group 64" transform="translate(0 0)">
      <rect id="Rectangle_25" data-name="Rectangle 25" width="5" height="3" transform="translate(-0.293 -0.443)" fill="#fff"/>
    </g>
  </g>
  <g id="Group_67" data-name="Group 67" transform="translate(108.557 65.563)">
    <g id="Group_66" data-name="Group 66" transform="translate(0 0)">
      <rect id="Rectangle_26" data-name="Rectangle 26" width="5" height="7" transform="translate(-0.068 0.437)" fill="#fff"/>
    </g>
  </g>
  <g id="Group_69" data-name="Group 69" transform="translate(80.452 50.234)">
    <g id="Group_68" data-name="Group 68" transform="translate(0 0)">
      <rect id="Rectangle_27" data-name="Rectangle 27" width="5" height="10" transform="translate(0.036 -0.234)" fill="#fff"/>
    </g>
  </g>
  <g id="Group_71" data-name="Group 71" transform="translate(95.782 50.234)">
    <g id="Group_70" data-name="Group 70" transform="translate(0 0)">
      <rect id="Rectangle_28" data-name="Rectangle 28" width="5" height="10" transform="translate(-0.293 -0.234)" fill="#fff"/>
    </g>
  </g>
  <g id="Group_73" data-name="Group 73" transform="translate(108.557 50.234)">
    <g id="Group_72" data-name="Group 72" transform="translate(0 0)">
      <rect id="Rectangle_29" data-name="Rectangle 29" width="5" height="10" transform="translate(-0.068 -0.234)" fill="#fff"/>
    </g>
  </g>
  <g id="Group_75" data-name="Group 75" transform="translate(108.557 78.338)">
    <g id="Group_74" data-name="Group 74" transform="translate(0 0)">
      <rect id="Rectangle_30" data-name="Rectangle 30" width="5" height="8" transform="translate(-0.068 -0.338)" fill="#fff"/>
    </g>
  </g>
  <g id="Group_77" data-name="Group 77" transform="translate(108.557 91.113)">
    <g id="Group_76" data-name="Group 76" transform="translate(0 0)">
      <rect id="Rectangle_31" data-name="Rectangle 31" width="5" height="5" transform="translate(-0.068 -0.113)" fill="#fff"/>
    </g>
  </g>
  <g id="Group_79" data-name="Group 79" transform="translate(108.557 106.443)">
    <g id="Group_78" data-name="Group 78" transform="translate(0 0)">
      <rect id="Rectangle_32" data-name="Rectangle 32" width="5" height="3" transform="translate(-0.068 -0.443)" fill="#fff"/>
    </g>
  </g>
  <g id="Group_81" data-name="Group 81" transform="translate(121.332 65.563)">
    <g id="Group_80" data-name="Group 80" transform="translate(0 0)">
      <rect id="Rectangle_33" data-name="Rectangle 33" width="5" height="7" transform="translate(0.157 0.437)" fill="#fff"/>
    </g>
  </g>
  <g id="Group_83" data-name="Group 83" transform="translate(121.332 78.338)">
    <g id="Group_82" data-name="Group 82" transform="translate(0 0)">
      <rect id="Rectangle_34" data-name="Rectangle 34" width="5" height="8" transform="translate(0.157 -0.338)" fill="#fff"/>
    </g>
  </g>
  <g id="Group_85" data-name="Group 85" transform="translate(121.332 91.113)">
    <g id="Group_84" data-name="Group 84" transform="translate(0 0)">
      <rect id="Rectangle_35" data-name="Rectangle 35" width="5" height="5" transform="translate(0.157 -0.113)" fill="#fff"/>
    </g>
  </g>
  <g id="Group_87" data-name="Group 87" transform="translate(121.332 106.443)">
    <g id="Group_86" data-name="Group 86" transform="translate(0 0)">
      <rect id="Rectangle_36" data-name="Rectangle 36" width="5" height="3" transform="translate(0.157 -0.443)" fill="#fff"/>
    </g>
  </g>
  <g id="Group_89" data-name="Group 89" transform="translate(0 0)">
    <g id="Group_88" data-name="Group 88">
      <path id="Path_26" data-name="Path 26" d="M192.822,49.022H143.8V3.268A3.266,3.266,0,0,0,140.532,0H55.558A3.266,3.266,0,0,0,52.29,3.264V49.022H3.268A3.266,3.266,0,0,0,0,52.286V169.941a3.266,3.266,0,0,0,3.264,3.268H10.1a19.612,19.612,0,0,0-.3,3.268v16.34a3.266,3.266,0,0,0,3.264,3.268H183.014a3.266,3.266,0,0,0,3.268-3.264V176.478a19.522,19.522,0,0,0-.3-3.268h6.832a3.266,3.266,0,0,0,3.268-3.264V52.29A3.266,3.266,0,0,0,192.822,49.022Zm-52.293,91.507a6.536,6.536,0,1,1-6.536-6.536A6.536,6.536,0,0,1,140.528,140.528Zm-78.434-6.536a6.536,6.536,0,1,1-6.536,6.536A6.536,6.536,0,0,1,62.094,133.992ZM42.485,189.55H16.341V176.478a13.072,13.072,0,1,1,26.145,0ZM22.877,150.333a6.536,6.536,0,1,1,6.536,6.536A6.536,6.536,0,0,1,22.877,150.333Zm20.1,12.02a19.7,19.7,0,0,0-4.111-3.043,13.073,13.073,0,1,0-18.913,0,19.735,19.735,0,0,0-7.5,7.363H6.536V55.558H52.29v76.415a12.894,12.894,0,0,0,.348,17.533A19.664,19.664,0,0,0,42.98,162.353Zm32.186,27.2H49.022V166.673a13.072,13.072,0,1,1,26.145,0Zm39.217,0H81.7V166.673a16.341,16.341,0,1,1,32.681,0ZM88.239,133.992a9.8,9.8,0,1,1,9.8,9.8A9.8,9.8,0,0,1,88.239,133.992Zm29.708,21.445a23.019,23.019,0,0,0-9.377-9.053,16.341,16.341,0,1,0-21.054,0,23.019,23.019,0,0,0-9.377,9.053,19.739,19.739,0,0,0-6.589-5.931A12.979,12.979,0,0,0,58.826,127.92V6.536H137.26V127.92a13.015,13.015,0,0,0-12.724,21.586A19.739,19.739,0,0,0,117.947,155.437Zm29.118,21.04V189.55H120.92V166.673a13.072,13.072,0,1,1,26.145,0Zm32.681,13.072H153.6V176.478a13.072,13.072,0,1,1,26.145,0Zm-19.609-39.217a6.536,6.536,0,1,1,6.536,6.536A6.536,6.536,0,0,1,160.137,150.333Zm29.413,16.341h-5.921a19.735,19.735,0,0,0-7.5-7.363,13.073,13.073,0,1,0-18.913,0,19.688,19.688,0,0,0-4.111,3.043,19.663,19.663,0,0,0-9.657-12.847,12.894,12.894,0,0,0,.348-17.533V55.558H189.55V166.673Z" transform="translate(0 0)" fill="#fff"/>
    </g>
  </g>
  <g id="Group_91" data-name="Group 91" transform="translate(149.436 75.783)">
    <g id="Group_90" data-name="Group 90" transform="translate(0 0)">
      <rect id="Rectangle_37" data-name="Rectangle 37" width="10" height="51" transform="translate(0.053 0.217)" fill="#fff"/>
    </g>
  </g>
  <g id="Group_93" data-name="Group 93" transform="translate(172.431 75.783)">
    <g id="Group_92" data-name="Group 92" transform="translate(0 0)">
      <rect id="Rectangle_38" data-name="Rectangle 38" width="10" height="51" transform="translate(0.058 0.217)" fill="#fff"/>
    </g>
  </g>
  <g id="Group_95" data-name="Group 95" transform="translate(14.024 75.783)">
    <g id="Group_94" data-name="Group 94" transform="translate(0 0)">
      <rect id="Rectangle_39" data-name="Rectangle 39" width="7" height="51" transform="translate(0.465 0.217)" fill="#fff"/>
    </g>
  </g>
  <g id="Group_97" data-name="Group 97" transform="translate(37.018 75.783)">
    <g id="Group_96" data-name="Group 96" transform="translate(0 0)">
      <rect id="Rectangle_40" data-name="Rectangle 40" width="5" height="51" transform="translate(0.471 0.217)" fill="#fff"/>
    </g>
  </g>
  <g id="Group_99" data-name="Group 99" transform="translate(75.166 13.072)">
    <g id="Group_98" data-name="Group 98">
      <path id="Path_27" data-name="Path 27" d="M226.489,32H187.268A3.266,3.266,0,0,0,184,35.264V61.413a3.266,3.266,0,0,0,3.264,3.268h39.221a3.266,3.266,0,0,0,3.268-3.264V35.268A3.266,3.266,0,0,0,226.489,32Zm-3.272,26.145H190.536V38.536h32.681Z" transform="translate(-184 -32)" fill="#fff"/>
    </g>
  </g>
</svg>
