<svg xmlns="http://www.w3.org/2000/svg" width="120.889" height="120.889" viewBox="0 0 120.889 120.889">
  <path id="Icon_awesome-user-circle" data-name="Icon awesome-user-circle" d="M60.444.563a60.444,60.444,0,1,0,60.444,60.444A60.434,60.434,0,0,0,60.444.563Zm0,23.4A21.448,21.448,0,1,1,39,45.408,21.448,21.448,0,0,1,60.444,23.96Zm0,83.842A46.7,46.7,0,0,1,24.738,91.18,27.174,27.174,0,0,1,48.745,76.605a5.964,5.964,0,0,1,1.73.268,32.27,32.27,0,0,0,9.968,1.682,32.148,32.148,0,0,0,9.968-1.682,5.964,5.964,0,0,1,1.73-.268A27.174,27.174,0,0,1,96.15,91.18,46.7,46.7,0,0,1,60.444,107.8Z" transform="translate(0 -0.563)" fill="#fc6704"/>
</svg>
