<svg xmlns="http://www.w3.org/2000/svg" width="83.468" height="83.468" viewBox="0 0 83.468 83.468">
  <path id="Icon_awesome-arrow-circle-left" data-name="Icon awesome-arrow-circle-left" d="M42.3,84.03A41.734,41.734,0,1,1,84.03,42.3,41.727,41.727,0,0,1,42.3,84.03ZM47.16,59.865,34.454,47.681H65.183a4.029,4.029,0,0,0,4.039-4.039V40.95a4.029,4.029,0,0,0-4.039-4.039H34.454L47.16,24.728a4.043,4.043,0,0,0,.067-5.772l-1.851-1.834a4.022,4.022,0,0,0-5.7,0L17.34,39.435a4.022,4.022,0,0,0,0,5.7L39.671,67.471a4.022,4.022,0,0,0,5.7,0l1.851-1.834A4.043,4.043,0,0,0,47.16,59.865Z" transform="translate(-0.563 -0.563)" fill="#fc6704"/>
</svg>
