<svg xmlns="http://www.w3.org/2000/svg" width="83.08" height="83.08" viewBox="0 0 83.08 83.08">
  <path id="Icon_ionic-ios-close-circle" data-name="Icon ionic-ios-close-circle" d="M44.915,3.375a41.54,41.54,0,1,0,41.54,41.54A41.534,41.534,0,0,0,44.915,3.375ZM55.44,59.953,44.915,49.429,34.39,59.953a3.192,3.192,0,1,1-4.513-4.513L40.4,44.915,29.877,34.39a3.192,3.192,0,0,1,4.513-4.513L44.915,40.4,55.44,29.877a3.192,3.192,0,0,1,4.513,4.513L49.429,44.915,59.953,55.44a3.206,3.206,0,0,1,0,4.513A3.17,3.17,0,0,1,55.44,59.953Z" transform="translate(-3.375 -3.375)" fill="#d90000"/>
</svg>
