<svg xmlns="http://www.w3.org/2000/svg" width="83.133" height="83.133" viewBox="0 0 83.133 83.133">
  <path id="Icon_awesome-check-circle" data-name="Icon awesome-check-circle" d="M82.282,41.422A40.86,40.86,0,1,1,41.422.563,40.859,40.859,0,0,1,82.282,41.422ZM36.7,63.057,67.011,32.742a2.636,2.636,0,0,0,0-3.728l-3.728-3.728a2.636,2.636,0,0,0-3.728,0L34.832,50.009,23.289,38.466a2.636,2.636,0,0,0-3.728,0l-3.728,3.728a2.636,2.636,0,0,0,0,3.728L32.968,63.057A2.636,2.636,0,0,0,36.7,63.057Z" transform="matrix(1, 0.017, -0.017, 1, 0.874, -0.572)" fill="#009e3a"/>
</svg>
