<svg xmlns="http://www.w3.org/2000/svg" width="116.5" height="74.136" viewBox="0 0 116.5 74.136">
  <path id="Icon_material-people" data-name="Icon material-people" d="M80.932,39.273A15.886,15.886,0,1,0,65.045,23.386,15.82,15.82,0,0,0,80.932,39.273Zm-42.364,0A15.886,15.886,0,1,0,22.682,23.386,15.82,15.82,0,0,0,38.568,39.273Zm0,10.591C26.23,49.864,1.5,56.059,1.5,68.4V81.636H75.636V68.4C75.636,56.059,50.907,49.864,38.568,49.864Zm42.364,0c-1.536,0-3.283.106-5.137.265C81.938,54.577,86.227,60.56,86.227,68.4V81.636H118V68.4C118,56.059,93.27,49.864,80.932,49.864Z" transform="translate(-1.5 -7.5)" fill="#fff"/>
</svg>
