<svg xmlns="http://www.w3.org/2000/svg" width="119.706" height="156.417" viewBox="0 0 119.706 156.417">
  <g id="Group_125" data-name="Group 125" transform="translate(-147 -193)">
    <path id="Icon_map-food" data-name="Icon map-food" d="M103.778,26.991,95.311,93.365h-28.6L58.278,26.66H93.193l6.9-23.835L104.006,4,97.385,26.942l6.393.049Zm-49.543,38.4s1.069-8.607-13.761-8.607H16.856C2.048,56.785,3.1,65.392,3.1,65.392H54.235ZM3.1,84.758s-1.048,8.607,13.761,8.607h23.62c14.83,0,13.761-8.607,13.761-8.607Zm48.921-4.3c2.427,0,4.388-2.4,4.388-5.377,0-3-1.96-5.382-4.388-5.382H5.11C2.693,69.7.72,72.08.72,75.077c0,2.98,1.973,5.377,4.39,5.377H52.017Z" transform="translate(162.7 256.052)" fill="#fc6704"/>
    <path id="Icon_awesome-map-marker-alt" data-name="Icon awesome-map-marker-alt" d="M37.531,109.3C5.876,63.4,0,58.7,0,41.83a41.83,41.83,0,1,1,83.659,0c0,16.865-5.876,21.575-37.531,67.466a5.231,5.231,0,0,1-8.6,0Zm4.3-50.037A17.429,17.429,0,1,0,24.4,41.83,17.429,17.429,0,0,0,41.83,59.259Z" transform="translate(147 193)" fill="#b41111"/>
  </g>
</svg>
